<?xml version="1.0" encoding="UTF-8" standalone="no"?>
<!-- Created with Inkscape (http://www.inkscape.org/) -->
<svg
   xmlns:dc="http://purl.org/dc/elements/1.1/"
   xmlns:cc="http://web.resource.org/cc/"
   xmlns:rdf="http://www.w3.org/1999/02/22-rdf-syntax-ns#"
   xmlns:svg="http://www.w3.org/2000/svg"
   xmlns="http://www.w3.org/2000/svg"
   xmlns:sodipodi="http://sodipodi.sourceforge.net/DTD/sodipodi-0.dtd"
   xmlns:inkscape="http://www.inkscape.org/namespaces/inkscape"
   width="744.09448819"
   height="1052.3622047"
   id="svg2"
   sodipodi:version="0.32"
   inkscape:version="0.45.1"
   sodipodi:docbase="/home/vossman/raid"
   sodipodi:docname="web-buttons.svg"
   inkscape:output_extension="org.inkscape.output.svg.inkscape"
   inkscape:export-filename="/home/vossman/raid/web-buttons.png"
   inkscape:export-xdpi="31.18"
   inkscape:export-ydpi="31.18">
  <defs
     id="defs4" />
  <sodipodi:namedview
     id="base"
     pagecolor="#ffffff"
     bordercolor="#666666"
     borderopacity="1.0"
     gridtolerance="10000"
     guidetolerance="10"
     objecttolerance="10"
     inkscape:pageopacity="0.0"
     inkscape:pageshadow="2"
     inkscape:zoom="1"
     inkscape:cx="375"
     inkscape:cy="416.05641"
     inkscape:document-units="px"
     inkscape:current-layer="layer1"
     inkscape:window-width="1280"
     inkscape:window-height="950"
     inkscape:window-x="0"
     inkscape:window-y="0" />
  <metadata
     id="metadata7">
    <rdf:RDF>
      <cc:Work
         rdf:about="">
        <dc:format>image/svg+xml</dc:format>
        <dc:type
           rdf:resource="http://purl.org/dc/dcmitype/StillImage" />
      </cc:Work>
    </rdf:RDF>
  </metadata>
  <g
     inkscape:label="Layer 1"
     inkscape:groupmode="layer"
     id="layer1">
    <g
       id="g13895"
       transform="translate(0,4.7999954)"
       inkscape:export-filename="/home/vossman/raid/button-keep.png"
       inkscape:export-xdpi="24.950001"
       inkscape:export-ydpi="24.950001">
      <path
         transform="translate(69.5,166.99999)"
         d="M 232.52272,451.8849 C 226.91987,457.48776 139.08013,457.48776 133.47728,451.88491 C 127.87442,446.28205 127.87442,358.44232 133.47728,352.83946 C 139.08013,347.2366 226.91987,347.2366 232.52272,352.83946 C 238.12558,358.44232 238.12558,446.28205 232.52272,451.8849 z "
         inkscape:randomized="0"
         inkscape:rounded="0.08"
         inkscape:flatsided="true"
         sodipodi:arg2="1.5707963"
         sodipodi:arg1="0.78539816"
         sodipodi:r2="49.52272"
         sodipodi:r1="70.035706"
         sodipodi:cy="402.36218"
         sodipodi:cx="183"
         sodipodi:sides="4"
         id="path3136"
         style="opacity:1;fill:#5bc140;fill-opacity:1;stroke:#000000;stroke-width:8;stroke-miterlimit:4;stroke-dasharray:none;stroke-opacity:0.15686275"
         sodipodi:type="star" />
      <path
         id="path8966"
         d="M 212.73253,558.39763 L 236.48255,552.52377 L 243.11046,574.84444 L 286.74421,530.5947 L 292.26747,530.98629 L 242.00581,608.12964 L 212.73253,558.39763 z "
         style="fill:#eeeeee;fill-opacity:1;fill-rule:evenodd;stroke:#000000;stroke-width:4;stroke-linecap:butt;stroke-linejoin:miter;stroke-miterlimit:4;stroke-dasharray:none;stroke-opacity:0.15686275" />
    </g>
    <g
       id="g13899"
       transform="translate(0,7.1999969)"
       inkscape:export-filename="/home/vossman/raid/button-reject.png"
       inkscape:export-xdpi="24.950001"
       inkscape:export-ydpi="24.950001">
      <path
         transform="translate(69.5,288.00001)"
         d="M 232.52272,451.8849 C 226.91987,457.48776 139.08013,457.48776 133.47728,451.88491 C 127.87442,446.28205 127.87442,358.44232 133.47728,352.83946 C 139.08013,347.2366 226.91987,347.2366 232.52272,352.83946 C 238.12558,358.44232 238.12558,446.28205 232.52272,451.8849 z "
         inkscape:randomized="0"
         inkscape:rounded="0.08"
         inkscape:flatsided="true"
         sodipodi:arg2="1.5707963"
         sodipodi:arg1="0.78539816"
         sodipodi:r2="49.52272"
         sodipodi:r1="70.035706"
         sodipodi:cy="402.36218"
         sodipodi:cx="183"
         sodipodi:sides="4"
         id="path3138"
         style="opacity:1;fill:#c13f3f;fill-opacity:1;stroke:#000000;stroke-width:8;stroke-miterlimit:4;stroke-dasharray:none;stroke-opacity:0.15686275"
         sodipodi:type="star" />
      <path
         sodipodi:nodetypes="ccczcczcczccz"
         d="M 260.10356,690.4274 C 260.10357,686.27644 290.07372,672.54688 290.69779,669.7039 C 282.28474,667.79726 274.96871,652.76107 273.15829,652.1644 C 270.31531,652.78847 256.05157,683.72774 252.43479,682.75862 C 248.495,681.70296 234.55427,652.65805 231.71128,652.03398 C 229.81234,660.41793 214.75506,667.79676 214.17179,669.57348 C 214.79585,672.41646 244.89643,686.03824 244.89643,690.29698 C 244.89643,694.60201 214.92628,708.17749 214.30221,711.02048 C 222.68617,712.91943 230.06496,727.9767 231.84171,728.55998 C 234.68469,727.9359 249.15159,697.96575 252.56521,697.96575 C 255.98964,697.96576 270.44572,728.06633 273.28871,728.6904 C 275.19537,720.27731 290.23152,712.96137 290.82821,711.1509 C 290.20413,708.30792 260.10356,694.83476 260.10356,690.4274 z "
         style="fill:#eeeeee;fill-opacity:1;fill-rule:evenodd;stroke:#000000;stroke-width:4;stroke-linecap:butt;stroke-linejoin:miter;stroke-miterlimit:4;stroke-dasharray:none;stroke-opacity:0.15686275"
         id="path9941" />
    </g>
    <g
       id="g13891"
       transform="translate(0,2.3999939)"
       inkscape:export-filename="/home/vossman/raid/button-back.png"
       inkscape:export-xdpi="24.950001"
       inkscape:export-ydpi="24.950001">
      <path
         transform="translate(69.5,46.00003)"
         d="M 232.52272,451.8849 C 226.91987,457.48776 139.08013,457.48776 133.47728,451.88491 C 127.87442,446.28205 127.87442,358.44232 133.47728,352.83946 C 139.08013,347.2366 226.91987,347.2366 232.52272,352.83946 C 238.12558,358.44232 238.12558,446.28205 232.52272,451.8849 z "
         inkscape:randomized="0"
         inkscape:rounded="0.08"
         inkscape:flatsided="true"
         sodipodi:arg2="1.5707963"
         sodipodi:arg1="0.78539816"
         sodipodi:r2="49.52272"
         sodipodi:r1="70.035706"
         sodipodi:cy="402.36218"
         sodipodi:cx="183"
         sodipodi:sides="4"
         id="path3134"
         style="opacity:1;fill:#407cc0;fill-opacity:1;stroke:#000000;stroke-width:8;stroke-miterlimit:4;stroke-dasharray:none;stroke-opacity:0.15686275"
         sodipodi:type="star" />
      <path
         transform="matrix(-0.8523794,0,0,0.6506489,637.60459,154.03326)"
         d="M 417.83753,492.48076 C 415.75291,491.2772 415.75291,413.44717 417.83753,412.24361 C 419.92215,411.04005 487.32494,449.95507 487.32494,452.36218 C 487.32494,454.7693 419.92215,493.68431 417.83753,492.48076 z "
         inkscape:randomized="0"
         inkscape:rounded="0.03"
         inkscape:flatsided="true"
         sodipodi:arg2="3.1415927"
         sodipodi:arg1="2.0943951"
         sodipodi:r2="23.16247"
         sodipodi:r1="46.32494"
         sodipodi:cy="452.36218"
         sodipodi:cx="441"
         sodipodi:sides="3"
         id="path10961"
         style="opacity:1;fill:#eeeeee;fill-opacity:1;stroke:#000000;stroke-width:5.37118578;stroke-miterlimit:4;stroke-dasharray:none;stroke-opacity:0.15343915"
         sodipodi:type="star" />
    </g>
    <g
       id="g13903"
       transform="translate(0,9.5999832)"
       inkscape:export-filename="/home/vossman/raid/button-next.png"
       inkscape:export-xdpi="24.950001"
       inkscape:export-ydpi="24.950001">
      <path
         transform="translate(69.5,409.00001)"
         d="M 232.52272,451.8849 C 226.91987,457.48776 139.08013,457.48776 133.47728,451.88491 C 127.87442,446.28205 127.87442,358.44232 133.47728,352.83946 C 139.08013,347.2366 226.91987,347.2366 232.52272,352.83946 C 238.12558,358.44232 238.12558,446.28205 232.52272,451.8849 z "
         inkscape:randomized="0"
         inkscape:rounded="0.08"
         inkscape:flatsided="true"
         sodipodi:arg2="1.5707963"
         sodipodi:arg1="0.78539816"
         sodipodi:r2="49.52272"
         sodipodi:r1="70.035706"
         sodipodi:cy="402.36218"
         sodipodi:cx="183"
         sodipodi:sides="4"
         id="path3140"
         style="opacity:1;fill:#407cc0;fill-opacity:1;stroke:#000000;stroke-width:8;stroke-miterlimit:4;stroke-dasharray:none;stroke-opacity:0.15686275"
         sodipodi:type="star" />
      <path
         transform="matrix(0.8523794,0,0,0.6506489,-132.60459,517.03324)"
         d="M 417.83753,492.48076 C 415.75291,491.2772 415.75291,413.44717 417.83753,412.24361 C 419.92215,411.04005 487.32494,449.95507 487.32494,452.36218 C 487.32494,454.7693 419.92215,493.68431 417.83753,492.48076 z "
         inkscape:randomized="0"
         inkscape:rounded="0.03"
         inkscape:flatsided="true"
         sodipodi:arg2="3.1415927"
         sodipodi:arg1="2.0943951"
         sodipodi:r2="23.16247"
         sodipodi:r1="46.32494"
         sodipodi:cy="452.36218"
         sodipodi:cx="441"
         sodipodi:sides="3"
         id="path12905"
         style="opacity:1;fill:#eeeeee;fill-opacity:1;stroke:#000000;stroke-width:5.37118578;stroke-miterlimit:4;stroke-dasharray:none;stroke-opacity:0.15343915"
         sodipodi:type="star" />
    </g>
    <g
       id="g13887"
       transform="translate(0,-7.6293945e-6)"
       inkscape:export-filename="/home/vossman/raid/button-first.png"
       inkscape:export-xdpi="18.709999"
       inkscape:export-ydpi="18.709999">
      <path
         transform="translate(69.5,-74.999992)"
         d="M 232.52272,451.8849 C 226.91987,457.48776 139.08013,457.48776 133.47728,451.88491 C 127.87442,446.28205 127.87442,358.44232 133.47728,352.83946 C 139.08013,347.2366 226.91987,347.2366 232.52272,352.83946 C 238.12558,358.44232 238.12558,446.28205 232.52272,451.8849 z "
         inkscape:randomized="0"
         inkscape:rounded="0.08"
         inkscape:flatsided="true"
         sodipodi:arg2="1.5707963"
         sodipodi:arg1="0.78539816"
         sodipodi:r2="49.52272"
         sodipodi:r1="70.035706"
         sodipodi:cy="402.36218"
         sodipodi:cx="183"
         sodipodi:sides="4"
         id="path2162"
         style="opacity:1;fill:#407cc0;fill-opacity:1;stroke:#000000;stroke-width:8;stroke-miterlimit:4;stroke-dasharray:none;stroke-opacity:0.15686275"
         sodipodi:type="star" />
      <path
         id="path12907"
         d="M 220.00713,300.18702 C 218.64933,300.18702 217.28529,300.48088 217.22643,301.03943 C 217.10873,302.15656 217.10871,352.58239 217.22643,353.6995 C 217.34414,354.81663 222.67013,354.81665 222.78783,353.6995 C 222.84522,353.15482 222.87833,340.8118 222.87976,328.25345 C 228.66655,332.97566 264.35456,354.45815 265.55546,353.73107 C 265.93965,353.49846 266.2245,348.87218 266.38278,342.49187 C 276.49763,348.57415 286.26488,354.10459 286.88183,353.73107 C 288.18854,352.93991 288.18854,301.79899 286.88183,301.00786 C 286.26488,300.63434 276.49763,306.16478 266.38278,312.24706 C 266.2245,305.86676 265.93965,301.24046 265.55546,301.00786 C 264.35456,300.28078 228.66654,321.76328 222.87976,326.48548 C 222.87833,313.92653 222.84523,301.58415 222.78783,301.03943 C 222.72898,300.48087 221.36494,300.18702 220.00713,300.18702 z "
         style="opacity:1;fill:#eeeeee;fill-opacity:1;stroke:#000000;stroke-width:3.44776011;stroke-miterlimit:4;stroke-dasharray:none;stroke-opacity:0.15343915" />
    </g>
    <g
       id="g13907"
       transform="translate(0,12)"
       inkscape:export-filename="/home/vossman/raid/button-last.png"
       inkscape:export-xdpi="18.709999"
       inkscape:export-ydpi="18.709999">
      <path
         transform="translate(69.5,530)"
         d="M 232.52272,451.8849 C 226.91987,457.48776 139.08013,457.48776 133.47728,451.88491 C 127.87442,446.28205 127.87442,358.44232 133.47728,352.83946 C 139.08013,347.2366 226.91987,347.2366 232.52272,352.83946 C 238.12558,358.44232 238.12558,446.28205 232.52272,451.8849 z "
         inkscape:randomized="0"
         inkscape:rounded="0.08"
         inkscape:flatsided="true"
         sodipodi:arg2="1.5707963"
         sodipodi:arg1="0.78539816"
         sodipodi:r2="49.52272"
         sodipodi:r1="70.035706"
         sodipodi:cy="402.36218"
         sodipodi:cx="183"
         sodipodi:sides="4"
         id="path3142"
         style="opacity:1;fill:#407cc0;fill-opacity:1;stroke:#000000;stroke-width:8;stroke-miterlimit:4;stroke-dasharray:none;stroke-opacity:0.15686275"
         sodipodi:type="star" />
      <path
         id="path13885"
         d="M 284.99288,905.18702 C 286.35068,905.18702 287.71472,905.48088 287.77358,906.03943 C 287.89128,907.15656 287.8913,957.58239 287.77358,958.6995 C 287.65587,959.81663 282.32988,959.81665 282.21218,958.6995 C 282.15479,958.15482 282.12168,945.8118 282.12025,933.25345 C 276.33346,937.97566 240.64545,959.45815 239.44455,958.73107 C 239.06036,958.49846 238.77551,953.87218 238.61723,947.49187 C 228.50238,953.57415 218.73513,959.10459 218.11818,958.73107 C 216.81147,957.93991 216.81147,906.79899 218.11818,906.00786 C 218.73513,905.63434 228.50238,911.16478 238.61723,917.24706 C 238.77551,910.86676 239.06036,906.24046 239.44455,906.00786 C 240.64545,905.28078 276.33347,926.76328 282.12025,931.48548 C 282.12168,918.92653 282.15478,906.58415 282.21218,906.03943 C 282.27103,905.48087 283.63507,905.18702 284.99288,905.18702 z "
         style="opacity:1;fill:#eeeeee;fill-opacity:1;stroke:#000000;stroke-width:3.44776011;stroke-miterlimit:4;stroke-dasharray:none;stroke-opacity:0.15343915" />
    </g>
    <path
       style="fill:#5bc140;fill-opacity:1;fill-rule:evenodd;stroke:#000000;stroke-width:4;stroke-linecap:butt;stroke-linejoin:miter;stroke-miterlimit:4;stroke-dasharray:none;stroke-opacity:0.15686275"
       d="M 347.59803,567.69763 L 371.34805,561.82377 L 377.97596,584.14444 L 421.60971,539.8947 L 427.13297,540.28629 L 376.87131,617.42964 L 347.59803,567.69763 z "
       id="path2179"
       inkscape:export-filename="/home/vossman/raid/icon-check.png"
       inkscape:export-xdpi="17.661146"
       inkscape:export-ydpi="17.661146" />
    <path
       id="path2185"
       style="fill:#c13f3f;fill-opacity:1;fill-rule:evenodd;stroke:#000000;stroke-width:4;stroke-linecap:butt;stroke-linejoin:miter;stroke-miterlimit:4;stroke-dasharray:none;stroke-opacity:0.15686275"
       d="M 394.96906,697.1274 C 394.96907,692.97644 424.93922,679.24688 425.56329,676.4039 C 417.15024,674.49726 409.83421,659.46107 408.02379,658.8644 C 405.18081,659.48847 390.91707,690.42774 387.30029,689.45862 C 383.3605,688.40296 369.41977,659.35805 366.57678,658.73398 C 364.67784,667.11793 349.62056,674.49676 349.03729,676.27348 C 349.66135,679.11646 379.76193,692.73824 379.76193,696.99698 C 379.76193,701.30201 349.79178,714.87749 349.16771,717.72048 C 357.55167,719.61943 364.93046,734.6767 366.70721,735.25998 C 369.55019,734.6359 384.01709,704.66575 387.43071,704.66575 C 390.85514,704.66576 405.31122,734.76633 408.15421,735.3904 C 410.06087,726.97731 425.09702,719.66137 425.69371,717.8509 C 425.06963,715.00792 394.96906,701.53476 394.96906,697.1274 z "
       sodipodi:nodetypes="ccczcczcczccz"
       inkscape:export-filename="/home/vossman/raid/icon-cross.png"
       inkscape:export-xdpi="17.853504"
       inkscape:export-ydpi="17.853504" />
    <g
       id="g9988"
       inkscape:export-filename="/home/vossman/raid/icon-bluestar.png"
       inkscape:export-xdpi="17.661146"
       inkscape:export-ydpi="17.661146"
       transform="translate(11.495319,4.5537375)">
      <path
         transform="matrix(0.257729,-0.2208805,0.2208805,0.257729,249.84305,378.46107)"
         d="M 118,517.36218 C 107.50001,514.6721 39.51365,457.45413 35.070205,447.56767 C 30.626759,437.68121 32.972773,348.85251 37.931873,339.21438 C 42.890973,329.57625 113.80276,276.02665 124.43011,273.89455 C 135.05745,271.76246 221.13699,293.8159 229.42997,300.79535 C 237.72295,307.7748 274.15059,388.82459 273.86443,399.65992 C 273.57826,410.49525 232.92325,489.50924 224.27342,496.04123 C 215.6236,502.57321 128.49998,520.05226 118,517.36218 z "
         inkscape:randomized="0"
         inkscape:rounded="0.1"
         inkscape:flatsided="true"
         sodipodi:arg2="2.2703992"
         sodipodi:arg1="1.8216002"
         sodipodi:r2="88.323273"
         sodipodi:r1="124.90797"
         sodipodi:cy="396.36218"
         sodipodi:cx="149"
         sodipodi:sides="7"
         id="path2190"
         style="fill:#407cc0;fill-opacity:1;stroke:#000000;stroke-width:11.78447723;stroke-miterlimit:4;stroke-dasharray:none;stroke-opacity:0.15686275"
         sodipodi:type="star" />
      <path
         transform="matrix(0.257729,-0.2208805,0.2208805,0.257729,249.83644,378.95435)"
         d="M 118,517.36218 C 112.24979,515.88899 96.66898,467.76036 92.127417,463.93814 C 87.585855,460.11592 37.50361,452.98188 35.070205,447.56767 C 32.636798,442.15345 60.550798,399.96418 60.707515,394.03033 C 60.864231,388.09647 35.216074,344.4926 37.931873,339.21438 C 40.647673,333.93616 91.036669,329.45562 95.773654,325.87845 C 100.51064,322.30128 118.61015,275.06217 124.43011,273.89455 C 130.25006,272.72693 165.17011,309.32907 170.92032,310.80226 C 176.67052,312.27545 224.88841,296.97312 229.42997,300.79535 C 233.97153,304.61757 227.12713,354.74022 229.56053,360.15444 C 231.99394,365.56865 274.02114,393.72607 273.86443,399.65992 C 273.70771,405.59377 230.25283,431.49356 227.53703,436.77179 C 224.82123,442.05001 229.01041,492.46406 224.27342,496.04123 C 219.53644,499.6184 172.19349,481.79226 166.37353,482.95988 C 160.55358,484.1275 123.7502,518.83538 118,517.36218 z "
         inkscape:randomized="0"
         inkscape:rounded="0.1"
         inkscape:flatsided="false"
         sodipodi:arg2="2.2703992"
         sodipodi:arg1="1.8216002"
         sodipodi:r2="88.323273"
         sodipodi:r1="124.90797"
         sodipodi:cy="396.36218"
         sodipodi:cx="149"
         sodipodi:sides="7"
         id="path3164"
         style="fill:#00e3ff;fill-opacity:1;stroke:#000000;stroke-width:11.78447723;stroke-miterlimit:4;stroke-dasharray:none;stroke-opacity:0.15686275"
         sodipodi:type="star" />
    </g>
  </g>
</svg>
